<svg xmlns="http://www.w3.org/2000/svg" viewBox="0 0 3039.77 444.09"><defs><style>.ef583d6c-af4f-42b3-9315-dbefc58ed004{fill:#426fb1;}</style></defs><g id="aa49567d-e851-4c57-af94-3009f0c0b252" data-name="Capa 10"><path class="ef583d6c-af4f-42b3-9315-dbefc58ed004" d="M152.33,203.93,286.85,382.06c6.14,8,6.76,14.74,6.76,20.88,0,17.81-15.36,41.15-41.77,41.15-14.13,0-26.41-5.52-35.63-17.81L97.05,266.58,86,278.86V404.17c0,21.5-19.65,39.92-43,39.92-24,0-43-18.42-43-39.92V39.31C0,18.43,19,0,43,0,66.34,0,86,18.43,86,39.31V156L207.61,17.81C215,8.6,229.11,0,242.62,0,261.05,0,285,17.81,285,39.31c0,9.21-.62,15.36-10.45,26.41Z"/><path class="ef583d6c-af4f-42b3-9315-dbefc58ed004" d="M437.94,403.55V269L329.83,57.74a50.94,50.94,0,0,1-3.68-17.81C326.15,18.43,347.64,0,369.76,0c12.9,0,27.64,5.53,35,18.43l76.78,152.33L557.71,18.43C565.08,5.53,579.83,0,593.34,0,615.45,0,637,18.43,637,39.93c0,5.52-2.46,12.28-4.3,17.81L525.16,269V403.55c0,21.5-19,40.54-43.61,40.54S437.94,425.67,437.94,403.55Z"/><path class="ef583d6c-af4f-42b3-9315-dbefc58ed004" d="M730.92,438.57c-27,0-47.91-20.27-47.91-44.23V49.75c0-25.18,22.11-44.22,47.91-44.22H834.73c92.13,0,138.2,59,138.2,120.39,0,43-27.64,69.41-64.49,87.22,38.08,15.36,76.16,43,76.16,96.44,0,71.86-57.74,129-152.33,129ZM839.64,175.06c21.5,0,47.3-14.74,47.3-47.91,0-23.34-11.06-44.23-43-44.23H769v92.14ZM769,253.68V360.56H837.8c40.54,0,60.81-20.27,60.81-52.21,0-35-24.57-54.67-57.13-54.67Z"/><path class="ef583d6c-af4f-42b3-9315-dbefc58ed004" d="M1260.38,438.57H1097.61c-30.1,0-57.13-10.45-57.13-43.62V49.14c0-21.5,20.27-43.61,47.3-43.61h166.46c23.34,0,43,18.43,43,39.92,0,22.12-19.65,38.09-43,38.09H1126.48v98.89h116.09c21.5,0,42.38,16.58,42.38,38.7s-18.43,39.31-42.38,39.31H1126.48V360.56h133.9c22.73,0,43,17.2,43,38.08C1303.38,420.75,1283.72,438.57,1260.38,438.57Z"/><path class="ef583d6c-af4f-42b3-9315-dbefc58ed004" d="M1576.7,253.68l84.15,126.53c20.27,30.72-9.82,63.27-37.47,63.27-15.35,0-28.25-6.76-36.24-19L1484,262.89h-41.76V403.55c0,21.5-20.27,40.54-43.62,40.54-22.72,0-42.38-18.42-42.38-40.54V49.75c0-23.95,21.5-44.22,46.68-44.22h106.88c115.48,0,152.33,65.72,152.33,130.22C1662.08,196.56,1629.53,236.48,1576.7,253.68ZM1507.29,83.54h-65.1v102H1511c42.38,0,65.11-17.81,65.11-49.75C1576.09,110,1563.19,83.54,1507.29,83.54Z"/><path class="ef583d6c-af4f-42b3-9315-dbefc58ed004" d="M1956.29,422.6l-142.5-248.16V404.17c0,21.5-20.27,39.92-43.61,39.92-24,0-42.38-18.42-42.38-39.92V41.77c0-24,19-41.77,44.84-41.77,16.58,0,33.16,9.21,41.76,22.73,54.67,94.59,86,150.49,142.51,249.38V39.93c0-21.5,20.27-39.93,43.61-39.93,24,0,42.38,18.43,42.38,39.93v362.4c0,22.72-18.43,41.76-45.45,41.76C1981.48,444.09,1964.28,435.49,1956.29,422.6Z"/><path class="ef583d6c-af4f-42b3-9315-dbefc58ed004" d="M2340.8,438.57H2178c-30.1,0-57.13-10.45-57.13-43.62V49.14c0-21.5,20.27-43.61,47.3-43.61h166.46c23.34,0,43,18.43,43,39.92,0,22.12-19.65,38.09-43,38.09H2206.9v98.89H2323c21.49,0,42.38,16.58,42.38,38.7s-18.43,39.31-42.38,39.31H2206.9V360.56h133.9c22.73,0,43,17.2,43,38.08C2383.8,420.75,2364.14,438.57,2340.8,438.57Z"/><path class="ef583d6c-af4f-42b3-9315-dbefc58ed004" d="M2528.74,83.54h-65.11c-24.57,0-43-17.82-43-38.7,0-17.2,19-39.31,43-39.31h216.21c22.11,0,43.61,17.2,43.61,39.31,0,20.88-20.27,38.7-43.61,38.7h-65.11V404.78c0,20.89-19.65,39.31-43,39.31-23.95,0-43-18.42-43-39.31Z"/><path class="ef583d6c-af4f-42b3-9315-dbefc58ed004" d="M2926.14,271.49c-12.9-5.53-28.26-11.05-44.84-16.58-60.2-18.43-125.3-38.7-125.3-127.76C2756,47.91,2811.28,0,2898.5,0,2934.74,0,3022,9.21,3022,55.28c0,20.27-16,38.7-43,38.7-11.05,0-19.65-3.69-30.09-6.76-11.67-4.3-25.19-9.21-46.69-9.21-30.09,0-58.35,10.44-58.35,46.68,0,27,15.36,36.24,25.8,41.15a234.89,234.89,0,0,0,44.22,16.59c60.2,19,125.92,39.92,125.92,127.15,0,85.37-65.11,134.51-152.94,134.51-45.46,0-131.45-16-131.45-59,0-19.66,17.81-38.7,40.54-38.7,9.21,0,19,3.07,30.71,7.37,14.74,4.91,34.4,12.29,60.81,12.29,42.38,0,63.88-19,63.88-52.83C2951.32,285.62,2937.2,276.41,2926.14,271.49Z"/></g></svg>